<svg width="266px" height="33px" viewBox="0 0 266 33" version="1.1" xmlns="http://www.w3.org/2000/svg" xmlns:xlink="http://www.w3.org/1999/xlink">
  <defs>
    <linearGradient x1="-0.18041958%" y1="50%" x2="100%" y2="50%" id="linearGradient-1">
      <stop stop-color="#00B4E6" offset="0%"></stop>
      <stop stop-color="#088CCB" offset="100%"></stop>
    </linearGradient>
  </defs>
  <g id="Page-1" stroke="none" stroke-width="1" fill="none" fill-rule="evenodd">
    <g id="mir-logo-h14px" transform="translate(214.000000, 10.000000)">
      <path d="M41.4545455,0 L33,0 C33.4545455,3.1 36.1818182,6 39.1818182,6 L45.9090909,6 C46,5.7 46,5.3 46,5 C46,2.2 44,0 41.4545455,0 Z" id="path10" fill="url(#linearGradient-1)"></path>
      <path d="M33,6 L33,13 L37.4318182,13 L37.4318182,9.26666667 L41.3712121,9.26666667 C43.5378788,9.26666667 45.4090909,7.86666667 46,6 L33,6 Z" id="path12" fill="#4DB45F"></path>
      <path d="M17,0 L17,13 L20.7142857,13 C20.7142857,13 21.6428571,13 22.1071429,12.0714286 C24.6142857,7.05714286 25.3571429,5.57142857 25.3571429,5.57142857 L25.8214286,5.57142857 L25.8214286,13 L30,13 L30,0 L26.2857143,0 C26.2857143,0 25.3571429,0.0928571429 24.8928571,0.928571429 C22.7571429,5.2 21.6428571,7.42857143 21.6428571,7.42857143 L21.1785714,7.42857143 L21.1785714,0 L17,0 Z" id="path14" fill="#4DB45F"></path>
      <path d="M0,13 L0,0 L4.23529412,0 C4.23529412,0 5.45882353,0 6.11764706,1.85714286 C7.81176471,6.77857143 8,7.42857143 8,7.42857143 C8,7.42857143 8.37647059,6.22142857 9.88235294,1.85714286 C10.5411765,0 11.7647059,0 11.7647059,0 L16,0 L16,13 L11.7647059,13 L11.7647059,6.03571429 L11.2941176,6.03571429 L8.94117647,13 L7.05882353,13 L4.70588235,6.03571429 L4.23529412,6.03571429 L4.23529412,13 L0,13 Z" id="path16" fill="#4DB45F"></path>
    </g>
    <g id="visa-logo@logotyp.us" transform="translate(119.000000, 10.000000)" fill="#1A1F71">
      <path d="M22.238525,4.47572966 C22.214015,6.42588836 23.962395,7.51417512 25.2793775,8.16122939 C26.6325875,8.82519161 27.0870975,9.25092514 27.0819375,9.84454595 C27.0716175,10.7532399 26.0024225,11.1541534 25.0018125,11.1697608 C23.2560125,11.1970736 22.241105,10.694604 21.4341025,10.3145003 L20.805335,13.2813037 C21.6149175,13.657614 23.114005,13.9856933 24.66867,14 C28.31765,14 30.70501,12.1839127 30.7180175,9.36808857 C30.7322075,5.79454982 25.815265,5.59664009 25.848805,3.99927228 C25.860415,3.51501123 26.318795,2.9981265 27.3233825,2.86665634 C27.8204625,2.80032515 29.1930225,2.74949292 30.7489775,3.47198266 L31.359685,0.601532864 C30.5230125,0.294263374 29.4473675,0 28.108455,0 C24.67383,0 22.2579825,1.84079895 22.238525,4.47572966 M37.228325,0.247332972 C36.56204,0.247332972 36.0003525,0.6392506 35.7498775,1.24067508 L30.5372025,13.7890842 L34.1836025,13.7890842 L34.9092275,11.7672834 L39.36521,11.7672834 L39.78618,13.7890842 L43,13.7890842 L40.1954325,0.247332972 L37.228325,0.247332972 Z M37.738305,3.90551986 L38.7906225,8.99047767 L35.908655,8.99047767 L37.738305,3.90551986 Z M17.81748,0.247332972 L14.9432525,13.7890842 L18.4178675,13.7890842 L21.290805,0.247332972 L17.81748,0.247332972 Z M12.6771525,0.247332972 L9.0604225,9.46433382 L7.597455,1.62728188 C7.4257775,0.752512193 6.7478825,0.247332972 5.99506,0.247332972 L0.0826675,0.247332972 L0,0.640551212 C1.2137825,0.906092746 2.5927925,1.3344275 3.428175,1.79267632 C3.939445,2.07252458 4.08543,2.31725633 4.2532375,2.98251916 L7.0241575,13.7890842 L10.696465,13.7890842 L16.3261325,0.247332972 L12.6771525,0.247332972 Z" id="Shape"></path>
    </g>
    <g id="mastercard-2" transform="translate(176.000000, 8.000000)" fill-rule="nonzero">
      <path d="M28.985059,15.1928713 L28.985059,14.1928713 L28.8651204,14.1928713 L28.7263754,14.8791213 L28.588398,14.1928713 L28.4680757,14.1928713 L28.4680757,15.1928713 L28.55328,15.1928713 L28.55328,14.439538 L28.6830056,15.089538 L28.7712804,15.089538 L28.901006,14.4378713 L28.901006,15.1928713 L28.9854428,15.1928713 L28.985059,15.1928713 Z M28.2241685,15.1928713 L28.2241685,14.3641213 L28.3776899,14.3641213 L28.3776899,14.1953713 L27.9854428,14.1953713 L27.9854428,14.3641213 L28.1389642,14.3641213 L28.1389642,15.1928713 L28.2234009,15.1928713 L28.2241685,15.1928713 Z" id="Shape" fill="#F79410"></path>
      <polygon id="Path" fill="#FF5F00" points="18.4345408 16.0344828 10.5872709 16.0344828 10.5872709 1.93185665 18.4346859 1.93185665"></polygon>
      <path d="M11.0847802,8.98345988 C11.0847802,6.12274508 12.4242395,3.57440635 14.5101804,1.93214683 C12.9311953,0.687208651 10.9784116,0.0115380459 8.9677903,0.0144991196 C4.01489578,0.0144991196 0,4.02998501 0,8.98345988 C0,13.9369348 4.01489578,17.9524209 8.9677903,17.9524209 C10.9784613,17.9554144 12.9313013,17.279742 14.5101804,16.0347729 C12.4245297,14.3928036 11.0847802,11.8443198 11.0847802,8.98345988" id="Path" fill="#EB001B"></path>
      <path d="M29.0213764,8.98345988 C29.0213764,13.9369348 25.0064806,17.9524205 20.0535861,17.9524205 C18.0427026,17.955362 16.0896498,17.2797044 14.5104706,16.0347729 C16.5968467,14.3925134 17.936306,11.8443198 17.936306,8.98345988 C17.936306,6.12259999 16.5968467,3.57440635 14.5104706,1.93214683 C16.0896107,0.687246263 18.0426072,0.0115904591 20.053441,0.0144994599 C25.0063355,0.0144994599 29.0213764,4.02998501 29.0213764,8.98345988" id="Path" fill="#F79E1B"></path>
    </g>
    <g id="Group-2">
      <rect id="Rectangle" fill="#1A6582" x="0" y="0" width="116" height="33"></rect>
      <g id="paymaster_logo_white" transform="translate(6.000000, 5.000000)" fill="#FFFFFF" fill-rule="nonzero">
        <g id="Group" transform="translate(36.000000, 4.000000)">
          <path d="M5.96966292,2.96 C5.96966292,3.48 5.89213483,3.92 5.73707865,4.28 C5.58202247,4.68 5.3494382,5 5.07808989,5.24 C4.80674157,5.52 4.41910112,5.72 3.99269663,5.84 C3.56629213,5.96 3.06235955,6.04 2.51966292,6.04 L1.78314607,6.04 L1.78314607,8.92 C1.78314607,8.96 1.78314607,9 1.74438202,9.04 C1.70561798,9.08 1.66685393,9.12 1.58932584,9.12 C1.51179775,9.16 1.43426966,9.16 1.31797753,9.16 C1.20168539,9.16 1.04662921,9.2 0.891573034,9.2 C0.736516854,9.2 0.581460674,9.2 0.465168539,9.16 C0.348876404,9.16 0.271348315,9.12 0.193820225,9.12 C0.116292135,9.08 0.0775280899,9.08 0.0387640449,9.04 C1.42108547e-14,9 1.42108547e-14,8.96 1.42108547e-14,8.92 L1.42108547e-14,0.88 C1.42108547e-14,0.68 0.0387640449,0.52 0.15505618,0.4 C0.271348315,0.28 0.426404494,0.24 0.581460674,0.24 L2.63595506,0.24 C2.82977528,0.24 3.02359551,0.24 3.21741573,0.28 C3.41123596,0.28 3.64382022,0.32 3.87640449,0.4 C4.14775281,0.44 4.38033708,0.56 4.65168539,0.68 C4.92303371,0.84 5.15561798,1 5.3494382,1.24 C5.54325843,1.44 5.69831461,1.72 5.7758427,2 C5.89213483,2.28 5.96966292,2.6 5.96966292,2.96 Z M4.10898876,3.08 C4.10898876,2.76 4.07022472,2.52 3.95393258,2.32 C3.83764045,2.12 3.72134831,1.96 3.56629213,1.88 C3.41123596,1.8 3.25617978,1.72 3.06235955,1.68 C2.90730337,1.64 2.71348315,1.64 2.51966292,1.64 L1.78314607,1.64 L1.78314607,4.68 L2.55842697,4.68 C2.82977528,4.68 3.06235955,4.64 3.25617978,4.56 C3.45,4.48 3.60505618,4.36 3.72134831,4.24 C3.83764045,4.08 3.91516854,3.92 3.99269663,3.72 C4.07022472,3.52 4.10898876,3.32 4.10898876,3.08 Z" id="Shape"></path>
          <path d="M13.2185393,8.96 C13.2185393,9.04 13.1797753,9.08 13.1410112,9.12 C13.1022472,9.16 13.0247191,9.2 12.947191,9.2 C12.8696629,9.2 12.7146067,9.24 12.5207865,9.24 C12.3269663,9.24 12.1719101,9.24 12.094382,9.2 C12.0168539,9.2 11.9393258,9.16 11.9005618,9.12 C11.8617978,9.08 11.8617978,9.04 11.8617978,8.96 L11.8617978,8.48 C11.6292135,8.76 11.3191011,8.96 11.0089888,9.12 C10.6988764,9.28 10.35,9.36 9.96235955,9.36 C9.65224719,9.36 9.34213483,9.32 9.07078652,9.24 C8.7994382,9.16 8.56685393,9.04 8.37303371,8.84 C8.17921348,8.68 8.0241573,8.48 7.90786517,8.2 C7.79157303,7.96 7.75280899,7.64 7.75280899,7.32 C7.75280899,6.96 7.83033708,6.64 7.94662921,6.4 C8.10168539,6.12 8.29550562,5.92 8.56685393,5.76 C8.83820225,5.6 9.18707865,5.44 9.5747191,5.36 C9.96235955,5.28 10.4275281,5.24 10.9702247,5.24 L11.5516854,5.24 L11.5516854,4.88 C11.5516854,4.68 11.5516854,4.52 11.5129213,4.36 C11.4741573,4.2 11.3966292,4.08 11.3191011,4 C11.241573,3.92 11.1252809,3.84 10.9702247,3.8 C10.8151685,3.76 10.6601124,3.72 10.4275281,3.72 C10.1561798,3.72 9.88483146,3.76 9.69101124,3.8 C9.45842697,3.88 9.26460674,3.92 9.10955056,4 C8.95449438,4.08 8.7994382,4.16 8.68314607,4.2 C8.56685393,4.28 8.48932584,4.28 8.41179775,4.28 C8.37303371,4.28 8.33426966,4.28 8.29550562,4.24 C8.25674157,4.2 8.21797753,4.16 8.21797753,4.12 C8.17921348,4.08 8.17921348,4 8.17921348,3.88 C8.17921348,3.8 8.14044944,3.68 8.14044944,3.6 C8.14044944,3.44 8.14044944,3.36 8.17921348,3.28 C8.21797753,3.2 8.25674157,3.12 8.29550562,3.04 C8.37303371,2.96 8.4505618,2.88 8.60561798,2.8 C8.76067416,2.72 8.95449438,2.64 9.14831461,2.56 C9.34213483,2.48 9.5747191,2.44 9.84606742,2.4 C10.0786517,2.36 10.35,2.32 10.6213483,2.32 C11.0865169,2.32 11.4741573,2.36 11.8230337,2.48 C12.1719101,2.56 12.4432584,2.72 12.6370787,2.92 C12.8696629,3.12 13.0247191,3.36 13.1022472,3.68 C13.2185393,4 13.2573034,4.36 13.2573034,4.76 L13.2573034,8.96 L13.2185393,8.96 Z M11.5516854,6.32 L10.8926966,6.32 C10.6213483,6.32 10.388764,6.36 10.1949438,6.4 C10.0011236,6.44 9.84606742,6.52 9.72977528,6.6 C9.61348315,6.68 9.53595506,6.8 9.45842697,6.92 C9.41966292,7.04 9.38089888,7.16 9.38089888,7.32 C9.38089888,7.56 9.45842697,7.8 9.61348315,7.92 C9.76853933,8.08 10.0011236,8.16 10.2724719,8.16 C10.5050562,8.16 10.7376404,8.08 10.9314607,7.96 C11.1252809,7.84 11.3191011,7.64 11.5516854,7.4 L11.5516854,6.32 L11.5516854,6.32 Z" id="Shape"></path>
          <path d="M19.2657303,9.2 L18.5292135,11.4 C18.4904494,11.52 18.3741573,11.6 18.2191011,11.64 C18.0252809,11.68 17.7926966,11.72 17.4438202,11.72 C17.25,11.72 17.1337079,11.72 17.0174157,11.68 C16.9011236,11.68 16.8235955,11.64 16.7848315,11.6 C16.7460674,11.56 16.7073034,11.52 16.7073034,11.48 C16.7073034,11.44 16.7073034,11.36 16.7460674,11.28 L17.5213483,9.2 C17.4438202,9.16 17.4050562,9.12 17.3662921,9.08 C17.3275281,9.04 17.288764,8.96 17.25,8.88 L15.1955056,3.2 C15.1567416,3.04 15.1179775,2.92 15.1179775,2.84 C15.1179775,2.76 15.1567416,2.68 15.1955056,2.64 C15.2342697,2.6 15.3505618,2.56 15.4668539,2.52 C15.5831461,2.52 15.7769663,2.48 15.9707865,2.48 C16.1646067,2.48 16.3196629,2.48 16.4359551,2.48 C16.5522472,2.48 16.6297753,2.52 16.7073034,2.52 C16.7848315,2.56 16.8235955,2.6 16.8623596,2.64 C16.9011236,2.68 16.9398876,2.76 16.9398876,2.88 L18.3741573,7 L18.4129213,7 L19.6921348,2.8 C19.7308989,2.68 19.7696629,2.6 19.808427,2.56 C19.847191,2.52 19.9247191,2.48 20.0022472,2.48 C20.1185393,2.48 20.2735955,2.44 20.5061798,2.44 C20.7,2.44 20.8550562,2.44 20.9713483,2.48 C21.0876404,2.48 21.2039326,2.52 21.2426966,2.6 C21.3202247,2.64 21.3202247,2.72 21.3202247,2.8 C21.3202247,2.88 21.3202247,3 21.2814607,3.12 L19.2657303,9.2 Z" id="Path"></path>
          <path d="M33.6859551,8.96 C33.6859551,9 33.6859551,9.04 33.647191,9.08 C33.608427,9.12 33.5696629,9.16 33.5308989,9.16 C33.4533708,9.2 33.3758427,9.2 33.2595506,9.2 C33.1432584,9.2 33.0269663,9.24 32.8331461,9.24 C32.6780899,9.24 32.5230337,9.24 32.4455056,9.2 C32.3292135,9.2 32.2516854,9.16 32.1741573,9.16 C32.0966292,9.12 32.0578652,9.12 32.0578652,9.08 C32.0191011,9.04 32.0191011,9 32.0191011,8.96 L32.0191011,1.64 L32.0191011,1.64 L29.4994382,8.92 C29.4994382,9 29.4606742,9.04 29.4219101,9.08 C29.3831461,9.12 29.344382,9.16 29.2668539,9.16 C29.1893258,9.2 29.1117978,9.2 28.9955056,9.2 C28.8792135,9.2 28.7629213,9.2 28.6078652,9.2 C28.452809,9.2 28.3365169,9.2 28.2202247,9.2 C28.1039326,9.2 28.0264045,9.16 27.9488764,9.16 C27.8713483,9.12 27.8325843,9.12 27.7938202,9.08 C27.7550562,9.04 27.7162921,9 27.7162921,8.96 L25.3129213,1.68 L25.3129213,1.68 L25.3129213,8.96 C25.3129213,9 25.3129213,9.04 25.2741573,9.08 C25.2353933,9.12 25.1966292,9.16 25.1191011,9.16 C25.041573,9.2 24.9640449,9.2 24.8477528,9.2 C24.7314607,9.2 24.6151685,9.24 24.4601124,9.24 C24.3050562,9.24 24.15,9.24 24.0724719,9.2 C23.9561798,9.2 23.8786517,9.16 23.8011236,9.16 C23.7235955,9.12 23.6848315,9.12 23.6848315,9.08 C23.6460674,9.04 23.6460674,9 23.6460674,8.96 L23.6460674,0.96 C23.6460674,0.72 23.7235955,0.56 23.8398876,0.44 C23.9561798,0.32 24.111236,0.24 24.3050562,0.24 L25.4679775,0.24 C25.6617978,0.24 25.855618,0.24 26.0106742,0.28 C26.1657303,0.32 26.2820225,0.36 26.3983146,0.44 C26.5146067,0.52 26.5921348,0.64 26.6696629,0.76 C26.747191,0.88 26.7859551,1.04 26.8634831,1.24 L28.7241573,6.56 L28.7629213,6.56 L30.7011236,1.24 C30.7786517,1.04 30.8174157,0.88 30.8949438,0.76 C30.9724719,0.64 31.05,0.52 31.1275281,0.44 C31.2050562,0.36 31.3213483,0.28 31.4376404,0.28 C31.5539326,0.24 31.7089888,0.24 31.8640449,0.24 L33.0657303,0.24 C33.1820225,0.24 33.2983146,0.24 33.3758427,0.28 C33.4533708,0.32 33.5308989,0.36 33.608427,0.44 C33.647191,0.52 33.7247191,0.56 33.7247191,0.68 C33.7634831,0.76 33.7634831,0.88 33.7634831,1 L33.7634831,8.96 L33.6859551,8.96 Z" id="Path"></path>
          <path d="M41.7488764,8.96 C41.7488764,9.04 41.7101124,9.08 41.6713483,9.12 C41.6325843,9.16 41.5550562,9.2 41.4775281,9.2 C41.4,9.2 41.2449438,9.24 41.0511236,9.24 C40.8573034,9.24 40.7022472,9.24 40.6247191,9.2 C40.547191,9.2 40.4696629,9.16 40.4308989,9.12 C40.3921348,9.08 40.3921348,9.04 40.3921348,8.96 L40.3921348,8.48 C40.1595506,8.76 39.8494382,8.96 39.5393258,9.12 C39.2292135,9.28 38.8803371,9.36 38.4926966,9.36 C38.1825843,9.36 37.8724719,9.32 37.6011236,9.24 C37.3297753,9.16 37.097191,9.04 36.9033708,8.84 C36.7095506,8.68 36.5544944,8.48 36.4382022,8.2 C36.3219101,7.96 36.2831461,7.64 36.2831461,7.32 C36.2831461,6.96 36.3606742,6.64 36.4769663,6.4 C36.6320225,6.12 36.8258427,5.92 37.097191,5.76 C37.3685393,5.6 37.7174157,5.44 38.1050562,5.36 C38.4926966,5.28 38.9578652,5.24 39.5005618,5.24 L40.0820225,5.24 L40.0820225,4.88 C40.0820225,4.68 40.0820225,4.52 40.0432584,4.36 C40.0044944,4.2 39.9269663,4.08 39.8494382,4 C39.7719101,3.92 39.655618,3.84 39.5005618,3.8 C39.3455056,3.76 39.1904494,3.72 38.9578652,3.72 C38.6865169,3.72 38.4151685,3.76 38.2213483,3.8 C37.988764,3.88 37.7949438,3.92 37.6398876,4 C37.4848315,4.08 37.3297753,4.16 37.2134831,4.2 C37.097191,4.28 37.0196629,4.28 36.9421348,4.28 C36.9033708,4.28 36.8646067,4.28 36.8258427,4.24 C36.7870787,4.2 36.7483146,4.16 36.7483146,4.12 C36.7095506,4.08 36.7095506,4 36.7095506,3.88 C36.7095506,3.8 36.6707865,3.68 36.6707865,3.6 C36.6707865,3.44 36.6707865,3.36 36.7095506,3.28 C36.7483146,3.2 36.7870787,3.12 36.8258427,3.04 C36.9033708,2.96 36.9808989,2.88 37.1359551,2.8 C37.2910112,2.72 37.4848315,2.64 37.6786517,2.56 C37.8724719,2.48 38.1050562,2.44 38.3764045,2.4 C38.6089888,2.36 38.8803371,2.32 39.1516854,2.32 C39.6168539,2.32 40.0044944,2.36 40.3533708,2.48 C40.7022472,2.56 40.9735955,2.72 41.1674157,2.92 C41.4,3.12 41.5550562,3.36 41.6325843,3.68 C41.7488764,4 41.7876404,4.36 41.7876404,4.76 L41.7876404,8.96 L41.7488764,8.96 Z M40.0820225,6.32 L39.4230337,6.32 C39.1516854,6.32 38.9191011,6.36 38.7252809,6.4 C38.5314607,6.44 38.3764045,6.52 38.2601124,6.6 C38.1438202,6.68 38.0662921,6.8 37.988764,6.92 C37.95,7.04 37.911236,7.16 37.911236,7.32 C37.911236,7.56 37.988764,7.8 38.1438202,7.92 C38.2988764,8.08 38.5314607,8.16 38.802809,8.16 C39.0353933,8.16 39.2679775,8.08 39.4617978,7.96 C39.655618,7.84 39.8494382,7.64 40.0820225,7.4 L40.0820225,6.32 Z" id="Shape"></path>
          <path d="M48.8039326,7.2 C48.8039326,7.56 48.7264045,7.84 48.6101124,8.12 C48.4938202,8.4 48.3,8.6 48.0674157,8.8 C47.8348315,8.96 47.5634831,9.12 47.2533708,9.2 C46.9432584,9.28 46.594382,9.32 46.2067416,9.32 C45.9741573,9.32 45.7803371,9.32 45.5477528,9.28 C45.3539326,9.24 45.1601124,9.2 45.0050562,9.16 C44.85,9.12 44.6949438,9.04 44.6174157,9 C44.5011236,8.96 44.4235955,8.88 44.3848315,8.84 C44.3460674,8.8 44.3073034,8.72 44.2685393,8.6 C44.2297753,8.48 44.2297753,8.36 44.2297753,8.12 C44.2297753,8 44.2297753,7.88 44.2297753,7.8 C44.2297753,7.72 44.2685393,7.64 44.2685393,7.6 C44.2685393,7.56 44.3073034,7.52 44.3460674,7.52 C44.3848315,7.52 44.4235955,7.48 44.4623596,7.48 C44.5011236,7.48 44.5786517,7.52 44.6949438,7.56 C44.7724719,7.6 44.9275281,7.68 45.0438202,7.76 C45.1988764,7.84 45.3539326,7.88 45.5477528,7.96 C45.741573,8 45.9353933,8.04 46.2067416,8.04 C46.3617978,8.04 46.4780899,8.04 46.594382,8 C46.7106742,7.96 46.8269663,7.92 46.9044944,7.88 C46.9820225,7.84 47.0595506,7.76 47.0983146,7.64 C47.1370787,7.56 47.1758427,7.44 47.1758427,7.32 C47.1758427,7.2 47.1370787,7.08 47.0595506,6.96 C46.9820225,6.88 46.8657303,6.76 46.7494382,6.72 C46.594382,6.64 46.4393258,6.56 46.2842697,6.52 C46.1292135,6.44 45.9353933,6.4 45.741573,6.32 C45.5477528,6.24 45.3926966,6.16 45.1988764,6.04 C45.0438202,5.92 44.888764,5.8 44.7337079,5.68 C44.5786517,5.52 44.5011236,5.36 44.4235955,5.16 C44.3460674,4.96 44.3073034,4.72 44.3073034,4.4 C44.3073034,4.12 44.3460674,3.84 44.4623596,3.6 C44.5786517,3.36 44.7337079,3.16 44.9275281,2.96 C45.1213483,2.8 45.3926966,2.64 45.702809,2.56 C46.0129213,2.48 46.3617978,2.4 46.7106742,2.4 C46.9044944,2.4 47.0983146,2.4 47.2533708,2.44 C47.447191,2.48 47.6022472,2.52 47.7185393,2.56 C47.8735955,2.6 47.9898876,2.64 48.0674157,2.68 C48.1837079,2.72 48.2224719,2.76 48.261236,2.8 C48.3,2.84 48.338764,2.88 48.338764,2.92 C48.338764,2.96 48.3775281,3 48.3775281,3.04 C48.3775281,3.08 48.3775281,3.16 48.4162921,3.2 C48.4162921,3.28 48.4162921,3.36 48.4162921,3.48 C48.4162921,3.6 48.4162921,3.72 48.4162921,3.8 C48.4162921,3.88 48.4162921,3.96 48.3775281,4 C48.3775281,4.04 48.338764,4.08 48.3,4.08 C48.261236,4.08 48.2224719,4.12 48.2224719,4.12 C48.1837079,4.12 48.1061798,4.08 48.0286517,4.04 C47.9511236,4 47.8348315,3.92 47.7185393,3.88 C47.6022472,3.84 47.447191,3.76 47.2921348,3.72 C47.1370787,3.68 46.9432584,3.64 46.7106742,3.64 C46.555618,3.64 46.4393258,3.64 46.3230337,3.68 C46.2067416,3.72 46.1292135,3.76 46.0516854,3.8 C45.9741573,3.88 45.9353933,3.92 45.8966292,4 C45.8578652,4.08 45.8578652,4.16 45.8578652,4.24 C45.8578652,4.4 45.8966292,4.52 45.9741573,4.6 C46.0516854,4.68 46.1679775,4.8 46.3230337,4.84 C46.4780899,4.92 46.6331461,5 46.7882022,5.04 C46.9820225,5.12 47.1370787,5.16 47.3308989,5.24 C47.5247191,5.32 47.6797753,5.4 47.8735955,5.52 C48.0674157,5.64 48.2224719,5.76 48.338764,5.88 C48.4938202,6.04 48.5713483,6.2 48.6876404,6.4 C48.7651685,6.68 48.8039326,6.92 48.8039326,7.2 Z" id="Path"></path>
          <path d="M54.6185393,8.36 C54.6185393,8.56 54.6185393,8.72 54.5797753,8.84 C54.5410112,8.96 54.5410112,9.04 54.4634831,9.08 C54.4247191,9.12 54.347191,9.16 54.2696629,9.2 C54.1921348,9.24 54.1146067,9.28 53.9983146,9.28 C53.8820225,9.32 53.7657303,9.32 53.6494382,9.32 C53.5331461,9.32 53.4168539,9.36 53.2617978,9.36 C52.9129213,9.36 52.641573,9.32 52.4089888,9.24 C52.1764045,9.16 51.9438202,9 51.788764,8.84 C51.6337079,8.64 51.5174157,8.44 51.4398876,8.16 C51.3623596,7.88 51.3235955,7.56 51.3235955,7.16 L51.3235955,4 L50.5870787,4 C50.5095506,4 50.4320225,3.96 50.3932584,3.84 C50.3544944,3.72 50.3157303,3.56 50.3157303,3.28 C50.3157303,3.16 50.3157303,3.04 50.3157303,2.96 C50.3157303,2.88 50.3544944,2.8 50.3544944,2.76 C50.3932584,2.72 50.3932584,2.68 50.4320225,2.64 C50.4707865,2.6 50.5095506,2.6 50.5483146,2.6 L51.2460674,2.6 L51.2460674,1.24 C51.2460674,1.2 51.2460674,1.16 51.2848315,1.12 C51.3235955,1.08 51.3623596,1.04 51.4011236,1.04 C51.4786517,1 51.5561798,1 51.6724719,1 C51.788764,1 51.9050562,1 52.0601124,1 C52.2151685,1 52.3702247,1 52.4865169,1 C52.602809,1 52.6803371,1.04 52.7578652,1.04 C52.8353933,1.08 52.8741573,1.08 52.8741573,1.12 C52.9129213,1.16 52.9129213,1.2 52.9129213,1.24 L52.9129213,2.6 L54.1921348,2.6 C54.2308989,2.6 54.2696629,2.6 54.308427,2.64 C54.347191,2.68 54.3859551,2.72 54.3859551,2.76 C54.4247191,2.8 54.4247191,2.88 54.4247191,2.96 C54.4247191,3.04 54.4247191,3.16 54.4247191,3.28 C54.4247191,3.52 54.3859551,3.72 54.347191,3.84 C54.308427,3.96 54.2308989,4 54.1533708,4 L52.8353933,4 L52.8353933,6.92 C52.8353933,7.24 52.8741573,7.52 52.9904494,7.68 C53.1067416,7.84 53.2617978,7.92 53.5331461,7.92 C53.6106742,7.92 53.6882022,7.92 53.7657303,7.88 C53.8432584,7.88 53.8820225,7.84 53.9595506,7.84 C53.9983146,7.8 54.0758427,7.8 54.1146067,7.8 C54.1533708,7.8 54.1921348,7.76 54.2308989,7.76 C54.2696629,7.76 54.2696629,7.76 54.308427,7.8 C54.347191,7.8 54.347191,7.84 54.347191,7.88 C54.347191,7.92 54.3859551,8 54.3859551,8.08 C54.6185393,8.12 54.6185393,8.24 54.6185393,8.36 Z" id="Path"></path>
          <path d="M62.3325843,5.68 C62.3325843,5.88 62.2938202,6.04 62.1775281,6.16 C62.1,6.28 61.9449438,6.32 61.7898876,6.32 L58.1460674,6.32 C58.1460674,6.6 58.1848315,6.84 58.2235955,7.04 C58.3011236,7.24 58.3786517,7.44 58.4949438,7.6 C58.611236,7.76 58.8050562,7.88 58.9988764,7.96 C59.1926966,8.04 59.4640449,8.08 59.7353933,8.08 C60.0455056,8.08 60.2780899,8.04 60.5106742,8 C60.7432584,7.96 60.9370787,7.92 61.0921348,7.84 C61.247191,7.8 61.4022472,7.72 61.4797753,7.68 C61.5960674,7.64 61.6735955,7.6 61.7511236,7.6 C61.7898876,7.6 61.8286517,7.6 61.8674157,7.64 C61.9061798,7.64 61.9061798,7.68 61.9449438,7.72 C61.9449438,7.76 61.9837079,7.84 61.9837079,7.88 C61.9837079,7.96 61.9837079,8.04 61.9837079,8.16 C61.9837079,8.28 61.9837079,8.36 61.9837079,8.44 C61.9837079,8.52 61.9837079,8.56 61.9449438,8.64 C61.9449438,8.68 61.9061798,8.72 61.9061798,8.76 C61.9061798,8.8 61.8674157,8.84 61.8286517,8.88 C61.7898876,8.92 61.7123596,8.96 61.5960674,9 C61.4797753,9.04 61.2859551,9.12 61.0921348,9.16 C60.8983146,9.2 60.6657303,9.24 60.394382,9.28 C60.1230337,9.32 59.8516854,9.32 59.5803371,9.32 C59.0376404,9.32 58.5724719,9.24 58.1848315,9.12 C57.797191,9 57.4483146,8.76 57.1769663,8.48 C56.905618,8.2 56.7117978,7.84 56.5955056,7.4 C56.4792135,6.96 56.4016854,6.48 56.4016854,5.88 C56.4016854,5.32 56.4792135,4.84 56.5955056,4.4 C56.7505618,3.96 56.944382,3.6 57.2157303,3.28 C57.4870787,2.96 57.797191,2.72 58.1848315,2.56 C58.5724719,2.4 58.9988764,2.32 59.4640449,2.32 C59.9679775,2.32 60.394382,2.4 60.7432584,2.56 C61.0921348,2.72 61.4022472,2.92 61.6348315,3.2 C61.8674157,3.48 62.0224719,3.8 62.138764,4.16 C62.2550562,4.52 62.2938202,4.92 62.2938202,5.36 L62.2938202,5.68 L62.3325843,5.68 Z M60.7044944,5.2 C60.7044944,4.72 60.6269663,4.32 60.4331461,4.04 C60.2393258,3.76 59.9292135,3.64 59.502809,3.64 C59.2702247,3.64 59.1151685,3.68 58.9601124,3.76 C58.8050562,3.84 58.688764,3.96 58.5724719,4.08 C58.4561798,4.24 58.3786517,4.4 58.3398876,4.56 C58.3011236,4.76 58.2623596,4.96 58.2235955,5.16 L60.7044944,5.16 L60.7044944,5.2 Z" id="Shape"></path>
          <path d="M68.7674157,3.36 C68.7674157,3.52 68.7674157,3.68 68.7674157,3.76 C68.7674157,3.88 68.7286517,3.96 68.7286517,4 C68.7286517,4.04 68.6898876,4.12 68.6511236,4.12 C68.6123596,4.16 68.5735955,4.16 68.5348315,4.16 C68.4960674,4.16 68.4573034,4.16 68.4185393,4.12 C68.3797753,4.12 68.3410112,4.08 68.2634831,4.08 C68.2247191,4.08 68.147191,4.04 68.0696629,4.04 C67.9921348,4.04 67.9146067,4 67.8370787,4 C67.7595506,4 67.6432584,4 67.5657303,4.04 C67.4882022,4.08 67.3719101,4.16 67.255618,4.24 C67.1393258,4.32 67.0617978,4.44 66.9455056,4.56 C66.8292135,4.68 66.7129213,4.88 66.5966292,5.08 L66.5966292,8.92 C66.5966292,8.96 66.5966292,9 66.5578652,9.04 C66.5191011,9.08 66.4803371,9.12 66.402809,9.12 C66.3252809,9.16 66.2477528,9.16 66.1314607,9.16 C66.0151685,9.16 65.8988764,9.16 65.7050562,9.16 C65.55,9.16 65.3949438,9.16 65.2786517,9.16 C65.1623596,9.16 65.0848315,9.12 65.0073034,9.12 C64.9297753,9.08 64.8910112,9.08 64.8522472,9.04 C64.8134831,9 64.8134831,8.96 64.8134831,8.92 L64.8134831,2.8 C64.8134831,2.76 64.8134831,2.72 64.8522472,2.68 C64.8910112,2.64 64.9297753,2.6 64.9685393,2.6 C65.0073034,2.56 65.0848315,2.56 65.2011236,2.56 C65.2786517,2.56 65.3949438,2.56 65.55,2.56 C65.7050562,2.56 65.8213483,2.56 65.8988764,2.56 C65.9764045,2.56 66.0539326,2.6 66.1314607,2.6 C66.1702247,2.64 66.2089888,2.64 66.2477528,2.68 C66.2865169,2.72 66.2865169,2.76 66.2865169,2.8 L66.2865169,3.56 C66.441573,3.32 66.5966292,3.16 66.7129213,3 C66.8679775,2.84 66.9842697,2.72 67.1005618,2.64 C67.2168539,2.56 67.3331461,2.48 67.4882022,2.44 C67.6044944,2.4 67.7207865,2.4 67.8758427,2.4 C67.9146067,2.4 67.9921348,2.4 68.0696629,2.4 C68.147191,2.4 68.2247191,2.4 68.2634831,2.44 C68.3410112,2.44 68.3797753,2.48 68.4573034,2.48 C68.4960674,2.52 68.5348315,2.52 68.5735955,2.56 C68.6123596,2.6 68.6123596,2.6 68.6123596,2.64 C68.6123596,2.68 68.6511236,2.72 68.6511236,2.76 C68.6511236,2.8 68.6511236,2.88 68.6898876,2.96 C68.7674157,3.08 68.7674157,3.2 68.7674157,3.36 Z" id="Path"></path>
        </g>
        <g id="Group" transform="translate(35.000000, 17.000000)">
          <path d="M2.77826087,3.38571429 C2.77826087,3.51428571 2.77826087,3.64285714 2.73913043,3.77142857 C2.7,3.9 2.66086957,3.98571429 2.62173913,4.07142857 C2.5826087,4.15714286 2.50434783,4.24285714 2.42608696,4.32857143 C2.34782609,4.41428571 2.26956522,4.45714286 2.15217391,4.5 C2.03478261,4.54285714 1.95652174,4.58571429 1.83913043,4.58571429 C1.72173913,4.62857143 1.60434783,4.62857143 1.44782609,4.62857143 L0.430434783,4.62857143 C0.391304348,4.62857143 0.352173913,4.62857143 0.313043478,4.58571429 C0.273913043,4.54285714 0.234782609,4.5 0.234782609,4.41428571 L0.234782609,0.557142857 C0.234782609,0.471428571 0.273913043,0.428571429 0.313043478,0.385714286 C0.352173913,0.342857143 0.391304348,0.342857143 0.430434783,0.342857143 L1.33043478,0.342857143 C1.56521739,0.342857143 1.76086957,0.385714286 1.9173913,0.428571429 C2.07391304,0.471428571 2.19130435,0.557142857 2.30869565,0.642857143 C2.42608696,0.728571429 2.50434783,0.857142857 2.54347826,0.985714286 C2.5826087,1.11428571 2.62173913,1.28571429 2.62173913,1.45714286 C2.62173913,1.54285714 2.62173913,1.67142857 2.5826087,1.75714286 C2.54347826,1.84285714 2.54347826,1.92857143 2.46521739,2.01428571 C2.42608696,2.1 2.34782609,2.14285714 2.30869565,2.22857143 C2.23043478,2.27142857 2.15217391,2.35714286 2.07391304,2.4 C2.19130435,2.44285714 2.26956522,2.44285714 2.38695652,2.52857143 C2.46521739,2.57142857 2.54347826,2.65714286 2.62173913,2.74285714 C2.7,2.82857143 2.73913043,2.95714286 2.77826087,3.08571429 C2.73913043,3.08571429 2.77826087,3.21428571 2.77826087,3.38571429 Z M1.99565217,1.41428571 C1.99565217,1.32857143 1.99565217,1.2 1.95652174,1.11428571 C1.9173913,1.02857143 1.87826087,0.942857143 1.83913043,0.9 C1.8,0.857142857 1.72173913,0.814285714 1.60434783,0.771428571 C1.52608696,0.728571429 1.40869565,0.728571429 1.25217391,0.728571429 L0.704347826,0.728571429 L0.704347826,2.14285714 L1.29130435,2.14285714 C1.40869565,2.14285714 1.52608696,2.14285714 1.60434783,2.1 C1.6826087,2.05714286 1.76086957,2.01428571 1.8,1.92857143 C1.83913043,1.84285714 1.87826087,1.8 1.9173913,1.71428571 C1.95652174,1.62857143 1.99565217,1.54285714 1.99565217,1.41428571 Z M2.23043478,3.38571429 C2.23043478,3.25714286 2.23043478,3.12857143 2.19130435,3.04285714 C2.15217391,2.95714286 2.11304348,2.87142857 2.03478261,2.78571429 C1.95652174,2.7 1.87826087,2.65714286 1.76086957,2.61428571 C1.64347826,2.57142857 1.52608696,2.57142857 1.36956522,2.57142857 L0.743478261,2.57142857 L0.743478261,4.11428571 L1.48695652,4.11428571 C1.60434783,4.11428571 1.72173913,4.11428571 1.8,4.07142857 C1.87826087,4.02857143 1.95652174,3.98571429 2.03478261,3.94285714 C2.11304348,3.9 2.15217391,3.81428571 2.19130435,3.72857143 C2.19130435,3.64285714 2.23043478,3.51428571 2.23043478,3.38571429 Z" id="Shape"></path>
          <path d="M6.02608696,4.07142857 C6.02608696,4.11428571 6.02608696,4.15714286 6.02608696,4.15714286 C6.02608696,4.2 6.02608696,4.2 6.02608696,4.24285714 C6.02608696,4.24285714 6.02608696,4.28571429 6.02608696,4.28571429 C6.02608696,4.28571429 5.98695652,4.32857143 5.98695652,4.37142857 C5.94782609,4.41428571 5.90869565,4.41428571 5.86956522,4.45714286 C5.79130435,4.5 5.75217391,4.54285714 5.67391304,4.58571429 C5.59565217,4.62857143 5.5173913,4.62857143 5.43913043,4.67142857 C5.36086957,4.67142857 5.24347826,4.71428571 5.16521739,4.71428571 C4.96956522,4.71428571 4.77391304,4.67142857 4.65652174,4.58571429 C4.5,4.5 4.3826087,4.41428571 4.26521739,4.28571429 C4.14782609,4.15714286 4.06956522,3.98571429 4.03043478,3.77142857 C3.99130435,3.55714286 3.95217391,3.34285714 3.95217391,3.08571429 C3.95217391,2.78571429 3.99130435,2.52857143 4.06956522,2.31428571 C4.14782609,2.1 4.22608696,1.92857143 4.34347826,1.8 C4.46086957,1.67142857 4.57826087,1.54285714 4.73478261,1.5 C4.89130435,1.41428571 5.04782609,1.41428571 5.24347826,1.41428571 C5.32173913,1.41428571 5.4,1.41428571 5.5173913,1.45714286 C5.59565217,1.45714286 5.67391304,1.5 5.75217391,1.54285714 C5.83043478,1.58571429 5.86956522,1.58571429 5.94782609,1.62857143 C5.98695652,1.67142857 6.02608696,1.71428571 6.06521739,1.71428571 C6.10434783,1.71428571 6.10434783,1.75714286 6.10434783,1.75714286 C6.10434783,1.75714286 6.10434783,1.8 6.14347826,1.8 C6.14347826,1.8 6.14347826,1.84285714 6.14347826,1.88571429 C6.14347826,1.92857143 6.14347826,1.92857143 6.14347826,1.97142857 C6.14347826,2.05714286 6.14347826,2.1 6.10434783,2.14285714 C6.10434783,2.18571429 6.06521739,2.18571429 6.02608696,2.18571429 C5.98695652,2.18571429 5.94782609,2.18571429 5.90869565,2.14285714 C5.86956522,2.1 5.83043478,2.05714286 5.75217391,2.01428571 C5.67391304,1.97142857 5.63478261,1.92857143 5.5173913,1.88571429 C5.43913043,1.84285714 5.32173913,1.84285714 5.20434783,1.84285714 C4.96956522,1.84285714 4.77391304,1.92857143 4.65652174,2.14285714 C4.53913043,2.35714286 4.46086957,2.65714286 4.46086957,3.04285714 C4.46086957,3.25714286 4.46086957,3.38571429 4.5,3.55714286 C4.53913043,3.68571429 4.57826087,3.81428571 4.65652174,3.94285714 C4.73478261,4.02857143 4.81304348,4.11428571 4.89130435,4.15714286 C4.96956522,4.2 5.08695652,4.24285714 5.20434783,4.24285714 C5.32173913,4.24285714 5.43913043,4.24285714 5.5173913,4.2 C5.59565217,4.15714286 5.67391304,4.11428571 5.75217391,4.07142857 C5.83043478,4.02857143 5.86956522,3.98571429 5.90869565,3.94285714 C5.94782609,3.9 5.98695652,3.9 6.02608696,3.9 C6.02608696,3.9 6.06521739,3.9 6.06521739,3.9 C6.06521739,3.9 6.06521739,3.94285714 6.10434783,3.94285714 C6.10434783,3.94285714 6.10434783,3.98571429 6.10434783,4.02857143 C6.02608696,3.98571429 6.02608696,4.02857143 6.02608696,4.07142857 Z" id="Path"></path>
          <path d="M9.54782609,2.91428571 C9.54782609,3 9.50869565,3.04285714 9.46956522,3.08571429 C9.43043478,3.12857143 9.39130435,3.12857143 9.35217391,3.12857143 L7.55217391,3.12857143 C7.55217391,3.3 7.55217391,3.42857143 7.59130435,3.55714286 C7.63043478,3.68571429 7.66956522,3.81428571 7.74782609,3.9 C7.82608696,3.98571429 7.90434783,4.07142857 8.02173913,4.11428571 C8.13913043,4.15714286 8.25652174,4.2 8.45217391,4.2 C8.56956522,4.2 8.68695652,4.2 8.80434783,4.15714286 C8.92173913,4.11428571 9,4.11428571 9.07826087,4.07142857 C9.15652174,4.02857143 9.19565217,4.02857143 9.27391304,3.98571429 C9.31304348,3.94285714 9.35217391,3.94285714 9.39130435,3.94285714 C9.39130435,3.94285714 9.43043478,3.94285714 9.43043478,3.94285714 C9.43043478,3.94285714 9.46956522,3.94285714 9.46956522,3.98571429 C9.46956522,3.98571429 9.46956522,4.02857143 9.46956522,4.07142857 C9.46956522,4.11428571 9.46956522,4.11428571 9.46956522,4.15714286 C9.46956522,4.2 9.46956522,4.2 9.46956522,4.24285714 C9.46956522,4.24285714 9.46956522,4.28571429 9.46956522,4.28571429 C9.46956522,4.28571429 9.46956522,4.32857143 9.46956522,4.32857143 C9.46956522,4.32857143 9.46956522,4.37142857 9.43043478,4.37142857 C9.43043478,4.37142857 9.39130435,4.41428571 9.31304348,4.41428571 C9.27391304,4.45714286 9.19565217,4.45714286 9.1173913,4.5 C9.03913043,4.54285714 8.92173913,4.54285714 8.80434783,4.58571429 C8.68695652,4.58571429 8.56956522,4.62857143 8.45217391,4.62857143 C8.2173913,4.62857143 8.02173913,4.58571429 7.86521739,4.54285714 C7.70869565,4.45714286 7.55217391,4.37142857 7.43478261,4.24285714 C7.3173913,4.11428571 7.23913043,3.94285714 7.16086957,3.72857143 C7.0826087,3.51428571 7.0826087,3.3 7.0826087,3 C7.0826087,2.74285714 7.12173913,2.52857143 7.16086957,2.31428571 C7.23913043,2.1 7.3173913,1.92857143 7.43478261,1.8 C7.55217391,1.67142857 7.66956522,1.54285714 7.86521739,1.45714286 C8.02173913,1.37142857 8.2173913,1.32857143 8.41304348,1.32857143 C8.64782609,1.32857143 8.80434783,1.37142857 8.96086957,1.45714286 C9.1173913,1.54285714 9.23478261,1.62857143 9.35217391,1.75714286 C9.46956522,1.88571429 9.50869565,2.05714286 9.54782609,2.22857143 C9.58695652,2.4 9.62608696,2.57142857 9.62608696,2.78571429 L9.62608696,2.91428571 L9.54782609,2.91428571 Z M8.06086957,0.557142857 C8.06086957,0.685714286 8.02173913,0.771428571 7.9826087,0.814285714 C7.94347826,0.857142857 7.86521739,0.9 7.74782609,0.9 C7.63043478,0.9 7.55217391,0.857142857 7.51304348,0.814285714 C7.47391304,0.771428571 7.47391304,0.685714286 7.47391304,0.557142857 C7.47391304,0.428571429 7.51304348,0.342857143 7.55217391,0.3 C7.59130435,0.257142857 7.66956522,0.214285714 7.78695652,0.214285714 C7.90434783,0.214285714 7.9826087,0.257142857 8.02173913,0.3 C8.06086957,0.342857143 8.06086957,0.428571429 8.06086957,0.557142857 Z M9.03913043,2.74285714 C9.03913043,2.44285714 9,2.22857143 8.8826087,2.05714286 C8.76521739,1.88571429 8.56956522,1.8 8.33478261,1.8 C8.2173913,1.8 8.1,1.84285714 8.02173913,1.88571429 C7.94347826,1.92857143 7.86521739,2.01428571 7.78695652,2.1 C7.70869565,2.18571429 7.66956522,2.27142857 7.63043478,2.4 C7.59130435,2.52857143 7.59130435,2.61428571 7.59130435,2.74285714 L9.03913043,2.74285714 Z M9.15652174,0.557142857 C9.15652174,0.685714286 9.1173913,0.771428571 9.07826087,0.814285714 C9.03913043,0.857142857 8.96086957,0.9 8.84347826,0.9 C8.72608696,0.9 8.64782609,0.857142857 8.60869565,0.814285714 C8.56956522,0.771428571 8.56956522,0.685714286 8.56956522,0.557142857 C8.56956522,0.428571429 8.60869565,0.342857143 8.64782609,0.3 C8.68695652,0.257142857 8.76521739,0.214285714 8.8826087,0.214285714 C9,0.214285714 9.07826087,0.257142857 9.1173913,0.3 C9.15652174,0.342857143 9.15652174,0.428571429 9.15652174,0.557142857 Z" id="Shape"></path>
          <path d="M15.0652174,3.64285714 C15.0652174,3.81428571 15.026087,3.94285714 14.9869565,4.07142857 C14.9478261,4.2 14.8695652,4.28571429 14.7521739,4.37142857 C14.6347826,4.45714286 14.5173913,4.5 14.3608696,4.54285714 C14.2043478,4.58571429 14.0086957,4.62857143 13.8130435,4.62857143 C13.7347826,4.62857143 13.6956522,4.62857143 13.6173913,4.62857143 C13.5391304,4.62857143 13.5,4.62857143 13.4217391,4.62857143 C13.3434783,4.62857143 13.3043478,4.62857143 13.2652174,4.62857143 C13.226087,4.62857143 13.1478261,4.62857143 13.1086957,4.62857143 C13.0304348,4.62857143 12.9521739,4.58571429 12.9130435,4.54285714 C12.873913,4.5 12.873913,4.41428571 12.873913,4.32857143 L12.873913,1.75714286 C12.873913,1.67142857 12.873913,1.58571429 12.9130435,1.54285714 C12.9521739,1.5 12.9913043,1.45714286 13.0695652,1.45714286 C13.1086957,1.45714286 13.1869565,1.45714286 13.226087,1.45714286 C13.3043478,1.45714286 13.3434783,1.45714286 13.4217391,1.45714286 C13.5,1.45714286 13.5391304,1.45714286 13.6173913,1.45714286 C13.6956522,1.45714286 13.7347826,1.45714286 13.8130435,1.45714286 C14.0086957,1.45714286 14.1652174,1.45714286 14.3217391,1.5 C14.4782609,1.54285714 14.5956522,1.58571429 14.673913,1.67142857 C14.7521739,1.75714286 14.8304348,1.84285714 14.8695652,1.92857143 C14.9086957,2.01428571 14.9478261,2.14285714 14.9478261,2.27142857 C14.9478261,2.44285714 14.9086957,2.57142857 14.8304348,2.7 C14.7521739,2.82857143 14.6347826,2.91428571 14.4782609,2.95714286 C14.673913,3 14.8304348,3.08571429 14.9478261,3.21428571 C15.026087,3.3 15.0652174,3.47142857 15.0652174,3.64285714 Z M14.4782609,2.27142857 C14.4782609,2.18571429 14.4782609,2.14285714 14.4391304,2.05714286 C14.4,2.01428571 14.3608696,1.92857143 14.3217391,1.92857143 C14.2826087,1.88571429 14.2043478,1.84285714 14.0869565,1.84285714 C14.0086957,1.84285714 13.8913043,1.8 13.773913,1.8 C13.6956522,1.8 13.5782609,1.8 13.5,1.8 C13.4217391,1.8 13.3434783,1.8 13.3043478,1.8 L13.3043478,2.74285714 L13.8130435,2.74285714 C14.0086957,2.74285714 14.1652174,2.7 14.2826087,2.61428571 C14.4,2.52857143 14.4782609,2.44285714 14.4782609,2.27142857 Z M14.5565217,3.68571429 C14.5565217,3.6 14.5565217,3.51428571 14.5173913,3.47142857 C14.4782609,3.38571429 14.4391304,3.34285714 14.4,3.3 C14.3217391,3.25714286 14.2434783,3.21428571 14.1652174,3.21428571 C14.0869565,3.17142857 13.9695652,3.17142857 13.8130435,3.17142857 L13.3043478,3.17142857 L13.3043478,4.24285714 C13.3434783,4.24285714 13.3826087,4.24285714 13.4217391,4.24285714 C13.4608696,4.24285714 13.5,4.24285714 13.5391304,4.24285714 C13.5782609,4.24285714 13.6173913,4.24285714 13.6565217,4.24285714 C13.6956522,4.24285714 13.7347826,4.24285714 13.773913,4.24285714 C13.8913043,4.24285714 14.0086957,4.24285714 14.126087,4.2 C14.2043478,4.15714286 14.2826087,4.15714286 14.3608696,4.07142857 C14.4391304,4.02857143 14.4782609,3.94285714 14.4782609,3.9 C14.5173913,3.85714286 14.5565217,3.77142857 14.5565217,3.68571429 Z" id="Shape"></path>
          <path d="M20.5434783,4.54285714 C20.5434783,4.58571429 20.5043478,4.58571429 20.5434783,4.54285714 C20.5434783,4.58571429 20.5043478,4.58571429 20.5043478,4.58571429 C20.5043478,4.58571429 20.4652174,4.58571429 20.426087,4.58571429 C20.3869565,4.58571429 20.3478261,4.58571429 20.3086957,4.58571429 C20.2695652,4.58571429 20.1913043,4.58571429 20.1521739,4.58571429 C20.1130435,4.58571429 20.073913,4.58571429 20.073913,4.58571429 C20.0347826,4.58571429 20.0347826,4.58571429 20.0347826,4.54285714 C20.0347826,4.54285714 20.0347826,4.5 19.9956522,4.5 L19.6826087,3.72857143 C19.6434783,3.64285714 19.6043478,3.55714286 19.5652174,3.47142857 C19.526087,3.38571429 19.4869565,3.34285714 19.4086957,3.3 C19.3695652,3.25714286 19.2913043,3.21428571 19.2130435,3.21428571 C19.1347826,3.21428571 19.0565217,3.17142857 18.9782609,3.17142857 L18.7826087,3.17142857 L18.7826087,4.54285714 C18.7826087,4.54285714 18.7826087,4.58571429 18.7826087,4.58571429 C18.7826087,4.58571429 18.7434783,4.58571429 18.7434783,4.62857143 C18.7043478,4.62857143 18.7043478,4.62857143 18.6652174,4.62857143 C18.626087,4.62857143 18.5869565,4.62857143 18.5478261,4.62857143 C18.5086957,4.62857143 18.4695652,4.62857143 18.4304348,4.62857143 C18.3913043,4.62857143 18.3521739,4.62857143 18.3521739,4.62857143 C18.3130435,4.62857143 18.3130435,4.62857143 18.3130435,4.58571429 C18.3130435,4.58571429 18.3130435,4.54285714 18.3130435,4.54285714 L18.3130435,1.5 C18.3130435,1.5 18.3130435,1.5 18.3130435,1.45714286 C18.3130435,1.45714286 18.3521739,1.45714286 18.3521739,1.41428571 C18.3913043,1.41428571 18.3913043,1.41428571 18.4304348,1.41428571 C18.4695652,1.41428571 18.5086957,1.41428571 18.5478261,1.41428571 C18.5869565,1.41428571 18.626087,1.41428571 18.6652174,1.41428571 C18.7043478,1.41428571 18.7434783,1.41428571 18.7434783,1.41428571 C18.7826087,1.41428571 18.7826087,1.41428571 18.7826087,1.45714286 C18.7826087,1.45714286 18.7826087,1.45714286 18.7826087,1.5 L18.7826087,2.74285714 L18.9782609,2.74285714 C19.0565217,2.74285714 19.1347826,2.74285714 19.173913,2.7 C19.2521739,2.7 19.2913043,2.65714286 19.3695652,2.61428571 C19.4086957,2.57142857 19.4869565,2.52857143 19.526087,2.44285714 C19.5652174,2.35714286 19.6043478,2.27142857 19.6434783,2.18571429 L19.9173913,1.5 C19.9173913,1.5 19.9173913,1.45714286 19.9565217,1.45714286 C19.9565217,1.45714286 19.9956522,1.41428571 19.9956522,1.41428571 C20.0347826,1.41428571 20.0347826,1.41428571 20.073913,1.41428571 C20.1130435,1.41428571 20.1521739,1.41428571 20.1913043,1.41428571 C20.2304348,1.41428571 20.2695652,1.41428571 20.3086957,1.41428571 C20.3478261,1.41428571 20.3478261,1.41428571 20.3869565,1.41428571 C20.3869565,1.41428571 20.426087,1.41428571 20.426087,1.45714286 C20.426087,1.45714286 20.426087,1.45714286 20.426087,1.5 C20.426087,1.5 20.426087,1.54285714 20.426087,1.54285714 C20.426087,1.58571429 20.426087,1.58571429 20.3869565,1.62857143 L20.1130435,2.27142857 C20.073913,2.4 20.0347826,2.48571429 19.9956522,2.57142857 C19.9565217,2.65714286 19.9173913,2.7 19.8391304,2.74285714 C19.8,2.78571429 19.7217391,2.82857143 19.6826087,2.87142857 C19.6434783,2.91428571 19.5652174,2.91428571 19.526087,2.95714286 L19.526087,2.95714286 C19.6043478,3 19.6434783,3 19.7217391,3.04285714 C19.8,3.08571429 19.8391304,3.12857143 19.8782609,3.17142857 C19.9173913,3.21428571 19.9956522,3.3 20.0347826,3.38571429 C20.073913,3.47142857 20.1130435,3.55714286 20.1521739,3.64285714 L20.4652174,4.41428571 C20.4652174,4.41428571 20.4652174,4.45714286 20.4652174,4.45714286 C20.4652174,4.45714286 20.4652174,4.5 20.4652174,4.5 C20.5043478,4.5 20.5434783,4.54285714 20.5434783,4.54285714 C20.5434783,4.54285714 20.5434783,4.54285714 20.5434783,4.54285714 Z" id="Path"></path>
          <path d="M23.7130435,4.54285714 C23.7130435,4.58571429 23.7130435,4.58571429 23.673913,4.58571429 C23.673913,4.58571429 23.6347826,4.62857143 23.5956522,4.62857143 C23.5565217,4.62857143 23.5173913,4.62857143 23.4782609,4.62857143 C23.4391304,4.62857143 23.4,4.62857143 23.3608696,4.62857143 C23.3217391,4.62857143 23.3217391,4.62857143 23.2826087,4.58571429 C23.2826087,4.58571429 23.2434783,4.54285714 23.2434783,4.54285714 L23.2434783,4.24285714 C23.126087,4.37142857 23.0086957,4.5 22.8521739,4.58571429 C22.6956522,4.67142857 22.5391304,4.71428571 22.3826087,4.71428571 C22.226087,4.71428571 22.1086957,4.71428571 21.9913043,4.67142857 C21.873913,4.62857143 21.7565217,4.58571429 21.6782609,4.5 C21.6,4.41428571 21.5217391,4.32857143 21.4826087,4.2 C21.4434783,4.07142857 21.4043478,3.94285714 21.4043478,3.81428571 C21.4043478,3.64285714 21.4434783,3.51428571 21.4826087,3.38571429 C21.5608696,3.25714286 21.6391304,3.17142857 21.7565217,3.08571429 C21.873913,3 22.0304348,2.95714286 22.1869565,2.91428571 C22.3434783,2.87142857 22.5391304,2.87142857 22.773913,2.87142857 L23.1652174,2.87142857 L23.1652174,2.65714286 C23.1652174,2.52857143 23.1652174,2.44285714 23.126087,2.35714286 C23.0869565,2.27142857 23.0869565,2.18571429 23.0086957,2.14285714 C22.9695652,2.1 22.8913043,2.05714286 22.8130435,2.01428571 C22.7347826,1.97142857 22.6173913,1.97142857 22.5391304,1.97142857 C22.4217391,1.97142857 22.3043478,1.97142857 22.1869565,2.01428571 C22.0695652,2.05714286 21.9913043,2.1 21.9130435,2.1 C21.8347826,2.14285714 21.7956522,2.18571429 21.7173913,2.18571429 C21.6782609,2.22857143 21.6391304,2.22857143 21.6,2.22857143 C21.6,2.22857143 21.5608696,2.22857143 21.5608696,2.22857143 C21.5608696,2.22857143 21.5217391,2.18571429 21.5217391,2.18571429 C21.5217391,2.18571429 21.5217391,2.14285714 21.4826087,2.1 C21.4826087,2.05714286 21.4826087,2.05714286 21.4826087,2.01428571 C21.4826087,1.97142857 21.4826087,1.92857143 21.4826087,1.88571429 C21.4826087,1.84285714 21.5217391,1.84285714 21.5217391,1.8 C21.5608696,1.75714286 21.6,1.75714286 21.6782609,1.71428571 C21.7565217,1.67142857 21.8347826,1.62857143 21.9130435,1.62857143 C21.9913043,1.58571429 22.1086957,1.58571429 22.1869565,1.54285714 C22.3043478,1.54285714 22.3826087,1.5 22.5,1.5 C22.6956522,1.5 22.8521739,1.54285714 23.0086957,1.58571429 C23.1652174,1.62857143 23.2434783,1.71428571 23.3608696,1.8 C23.4391304,1.88571429 23.5173913,2.01428571 23.5565217,2.14285714 C23.5956522,2.27142857 23.5956522,2.44285714 23.5956522,2.61428571 L23.5956522,4.54285714 L23.7130435,4.54285714 Z M23.2043478,3.17142857 L22.773913,3.17142857 C22.6173913,3.17142857 22.5,3.17142857 22.4217391,3.21428571 C22.3043478,3.25714286 22.226087,3.25714286 22.1869565,3.34285714 C22.1086957,3.38571429 22.0695652,3.47142857 22.0304348,3.51428571 C21.9913043,3.6 21.9913043,3.68571429 21.9913043,3.77142857 C21.9913043,3.94285714 22.0304348,4.07142857 22.1086957,4.15714286 C22.1869565,4.24285714 22.3434783,4.28571429 22.5,4.28571429 C22.6173913,4.28571429 22.773913,4.24285714 22.8521739,4.15714286 C22.9695652,4.07142857 23.0869565,3.98571429 23.2043478,3.81428571 L23.2043478,3.17142857 L23.2043478,3.17142857 Z" id="Shape"></path>
          <path d="M27.1173913,4.07142857 C27.1173913,4.11428571 27.1173913,4.15714286 27.1173913,4.15714286 C27.1173913,4.2 27.1173913,4.2 27.1173913,4.24285714 C27.1173913,4.24285714 27.1173913,4.28571429 27.1173913,4.28571429 C27.1173913,4.28571429 27.0782609,4.32857143 27.0782609,4.37142857 C27.0391304,4.41428571 27,4.41428571 26.9608696,4.45714286 C26.8826087,4.5 26.8434783,4.54285714 26.7652174,4.58571429 C26.6869565,4.62857143 26.6086957,4.62857143 26.5304348,4.67142857 C26.4521739,4.67142857 26.3347826,4.71428571 26.2565217,4.71428571 C26.0608696,4.71428571 25.8652174,4.67142857 25.7478261,4.58571429 C25.5913043,4.5 25.473913,4.41428571 25.3565217,4.28571429 C25.2391304,4.15714286 25.1608696,3.98571429 25.1217391,3.77142857 C25.0826087,3.55714286 25.0434783,3.34285714 25.0434783,3.08571429 C25.0434783,2.78571429 25.0826087,2.52857143 25.1608696,2.31428571 C25.2391304,2.1 25.3173913,1.92857143 25.4347826,1.8 C25.5521739,1.67142857 25.6695652,1.54285714 25.826087,1.5 C25.9826087,1.41428571 26.1391304,1.41428571 26.3347826,1.41428571 C26.4130435,1.41428571 26.4913043,1.41428571 26.6086957,1.45714286 C26.6869565,1.45714286 26.7652174,1.5 26.8434783,1.54285714 C26.9217391,1.58571429 26.9608696,1.58571429 27.0391304,1.62857143 C27.0782609,1.67142857 27.1173913,1.71428571 27.1565217,1.71428571 C27.1956522,1.71428571 27.1956522,1.75714286 27.1956522,1.75714286 C27.1956522,1.75714286 27.1956522,1.8 27.2347826,1.8 C27.2347826,1.8 27.2347826,1.84285714 27.2347826,1.88571429 C27.2347826,1.92857143 27.2347826,1.92857143 27.2347826,1.97142857 C27.2347826,2.05714286 27.2347826,2.1 27.1956522,2.14285714 C27.1956522,2.18571429 27.1565217,2.18571429 27.1173913,2.18571429 C27.0782609,2.18571429 27.0391304,2.18571429 27,2.14285714 C26.9608696,2.1 26.9217391,2.05714286 26.8434783,2.01428571 C26.7652174,1.97142857 26.726087,1.92857143 26.6086957,1.88571429 C26.5304348,1.84285714 26.4130435,1.84285714 26.2956522,1.84285714 C26.0608696,1.84285714 25.8652174,1.92857143 25.7478261,2.14285714 C25.6304348,2.35714286 25.5521739,2.65714286 25.5521739,3.04285714 C25.5521739,3.25714286 25.5521739,3.38571429 25.5913043,3.55714286 C25.6304348,3.68571429 25.6695652,3.81428571 25.7478261,3.94285714 C25.826087,4.07142857 25.9043478,4.11428571 25.9826087,4.15714286 C26.0608696,4.2 26.1782609,4.24285714 26.2956522,4.24285714 C26.4130435,4.24285714 26.5304348,4.24285714 26.6086957,4.2 C26.6869565,4.15714286 26.7652174,4.11428571 26.8434783,4.07142857 C26.9217391,4.02857143 26.9608696,3.98571429 27,3.94285714 C27.0391304,3.9 27.0782609,3.9 27.1173913,3.9 C27.1173913,3.9 27.1565217,3.9 27.1565217,3.9 C27.1565217,3.9 27.1565217,3.94285714 27.1956522,3.94285714 C27.1956522,3.94285714 27.1956522,3.98571429 27.1956522,4.02857143 C27.1173913,3.98571429 27.1173913,4.02857143 27.1173913,4.07142857 Z" id="Path"></path>
          <path d="M30.2869565,4.07142857 C30.2869565,4.11428571 30.2869565,4.15714286 30.2869565,4.15714286 C30.2869565,4.2 30.2869565,4.2 30.2869565,4.24285714 C30.2869565,4.24285714 30.2869565,4.28571429 30.2869565,4.28571429 C30.2869565,4.28571429 30.2478261,4.32857143 30.2478261,4.37142857 C30.2086957,4.41428571 30.1695652,4.41428571 30.1304348,4.45714286 C30.0521739,4.5 30.0130435,4.54285714 29.9347826,4.58571429 C29.8565217,4.62857143 29.7782609,4.62857143 29.7,4.67142857 C29.6217391,4.67142857 29.5043478,4.71428571 29.426087,4.71428571 C29.2304348,4.71428571 29.0347826,4.67142857 28.9173913,4.58571429 C28.7608696,4.5 28.6434783,4.41428571 28.526087,4.28571429 C28.4086957,4.15714286 28.3304348,3.98571429 28.2913043,3.77142857 C28.2521739,3.55714286 28.2130435,3.34285714 28.2130435,3.08571429 C28.2130435,2.78571429 28.2521739,2.52857143 28.3304348,2.31428571 C28.4086957,2.1 28.4869565,1.92857143 28.6043478,1.8 C28.7217391,1.67142857 28.8391304,1.54285714 28.9956522,1.5 C29.1521739,1.41428571 29.3086957,1.41428571 29.5043478,1.41428571 C29.5826087,1.41428571 29.6608696,1.41428571 29.7782609,1.45714286 C29.8565217,1.45714286 29.9347826,1.5 30.0130435,1.54285714 C30.0913043,1.58571429 30.1304348,1.58571429 30.2086957,1.62857143 C30.2478261,1.67142857 30.2869565,1.71428571 30.326087,1.71428571 C30.3652174,1.75714286 30.3652174,1.75714286 30.3652174,1.75714286 C30.3652174,1.75714286 30.3652174,1.8 30.4043478,1.8 C30.4043478,1.8 30.4043478,1.84285714 30.4043478,1.88571429 C30.4043478,1.92857143 30.4043478,1.92857143 30.4043478,1.97142857 C30.4043478,2.05714286 30.4043478,2.1 30.3652174,2.14285714 C30.3652174,2.18571429 30.326087,2.18571429 30.2869565,2.18571429 C30.2478261,2.18571429 30.2086957,2.18571429 30.1695652,2.14285714 C30.1304348,2.1 30.0913043,2.05714286 30.0130435,2.01428571 C29.9347826,1.97142857 29.8956522,1.92857143 29.7782609,1.88571429 C29.7,1.84285714 29.5826087,1.84285714 29.4652174,1.84285714 C29.2304348,1.84285714 29.0347826,1.92857143 28.9173913,2.14285714 C28.8,2.35714286 28.7217391,2.65714286 28.7217391,3.04285714 C28.7217391,3.25714286 28.7217391,3.38571429 28.7608696,3.55714286 C28.8,3.68571429 28.8391304,3.81428571 28.9173913,3.94285714 C28.9956522,4.02857143 29.073913,4.11428571 29.1521739,4.15714286 C29.2304348,4.2 29.3478261,4.24285714 29.4652174,4.24285714 C29.5826087,4.24285714 29.7,4.24285714 29.7782609,4.2 C29.8565217,4.15714286 29.9347826,4.11428571 30.0130435,4.07142857 C30.0913043,4.02857143 30.1304348,3.98571429 30.1695652,3.94285714 C30.2086957,3.9 30.2478261,3.9 30.2869565,3.9 C30.2869565,3.9 30.326087,3.9 30.326087,3.9 C30.326087,3.9 30.326087,3.94285714 30.3652174,3.94285714 C30.3652174,3.94285714 30.3652174,3.98571429 30.3652174,4.02857143 C30.2869565,3.98571429 30.2869565,4.02857143 30.2869565,4.07142857 Z" id="Path"></path>
          <path d="M32.7130435,4.62857143 L32.3608696,5.74285714 C32.3608696,5.78571429 32.3217391,5.78571429 32.2826087,5.82857143 C32.2434783,5.82857143 32.1652174,5.87142857 32.0478261,5.87142857 C32.0086957,5.87142857 31.9695652,5.87142857 31.9304348,5.87142857 C31.8913043,5.87142857 31.8913043,5.87142857 31.8521739,5.82857143 C31.8521739,5.82857143 31.8130435,5.78571429 31.8130435,5.78571429 C31.8130435,5.74285714 31.8130435,5.74285714 31.8130435,5.7 L32.2043478,4.67142857 C32.2043478,4.67142857 32.1652174,4.62857143 32.1652174,4.62857143 C32.1652174,4.62857143 32.126087,4.58571429 32.126087,4.58571429 L31.1478261,1.71428571 C31.1478261,1.67142857 31.1086957,1.62857143 31.1086957,1.58571429 C31.1086957,1.54285714 31.1086957,1.54285714 31.1478261,1.54285714 C31.1478261,1.54285714 31.1869565,1.5 31.226087,1.5 C31.2652174,1.5 31.3043478,1.5 31.3826087,1.5 C31.4608696,1.5 31.5,1.5 31.5391304,1.5 C31.5782609,1.5 31.6173913,1.5 31.6173913,1.5 C31.6565217,1.5 31.6565217,1.54285714 31.6565217,1.54285714 C31.6565217,1.54285714 31.6565217,1.58571429 31.6956522,1.62857143 L32.4782609,4.02857143 L32.4782609,4.02857143 L33.2217391,1.58571429 C33.2217391,1.54285714 33.2608696,1.5 33.2608696,1.5 C33.2608696,1.5 33.3,1.5 33.3391304,1.45714286 C33.3782609,1.45714286 33.4173913,1.45714286 33.4956522,1.45714286 C33.5347826,1.45714286 33.6130435,1.45714286 33.6521739,1.45714286 C33.6913043,1.45714286 33.7304348,1.45714286 33.7304348,1.5 C33.7304348,1.5 33.7695652,1.54285714 33.7695652,1.54285714 C33.7695652,1.58571429 33.7695652,1.58571429 33.7695652,1.62857143 L32.7130435,4.62857143 Z" id="Path"></path>
          <path d="M36.2173913,4.24285714 C36.2173913,4.32857143 36.2173913,4.37142857 36.2173913,4.41428571 C36.2173913,4.45714286 36.1548913,4.5 36.1548913,4.54285714 C36.0923913,4.58571429 36.0923913,4.58571429 35.9673913,4.58571429 C35.9048913,4.58571429 35.8423913,4.58571429 35.7173913,4.58571429 C35.5923913,4.58571429 35.5298913,4.58571429 35.4673913,4.58571429 C35.4048913,4.58571429 35.3423913,4.54285714 35.2798913,4.54285714 C35.2173913,4.5 35.2173913,4.45714286 35.2173913,4.41428571 C35.2173913,4.37142857 35.2173913,4.28571429 35.2173913,4.24285714 C35.2173913,4.15714286 35.2173913,4.11428571 35.2173913,4.07142857 C35.2173913,4.02857143 35.2798913,3.98571429 35.2798913,3.94285714 C35.3423913,3.9 35.3423913,3.9 35.4673913,3.9 C35.5298913,3.9 35.5923913,3.9 35.7173913,3.9 C35.8423913,3.9 35.9048913,3.9 35.9673913,3.9 C36.0298913,3.9 36.0923913,3.94285714 36.1548913,3.94285714 C36.2173913,3.98571429 36.2173913,4.02857143 36.2173913,4.07142857 C36.1548913,4.11428571 36.2173913,4.2 36.2173913,4.24285714 Z M36.0298913,3.34285714 C36.0298913,3.34285714 36.0298913,3.38571429 36.0298913,3.38571429 C36.0298913,3.38571429 35.9673913,3.42857143 35.9673913,3.42857143 C35.9673913,3.42857143 35.9048913,3.42857143 35.8423913,3.42857143 C35.7798913,3.42857143 35.7173913,3.42857143 35.6548913,3.42857143 C35.5923913,3.42857143 35.5298913,3.42857143 35.4673913,3.42857143 C35.4048913,3.42857143 35.4048913,3.42857143 35.3423913,3.42857143 C35.3423913,3.42857143 35.2798913,3.42857143 35.2798913,3.38571429 C35.2798913,3.38571429 35.2798913,3.34285714 35.2798913,3.34285714 L35.2173913,0.171428571 C35.2173913,0.128571429 35.2173913,0.128571429 35.2173913,0.0857142857 C35.2173913,0.0857142857 35.2798913,0.0428571429 35.2798913,0.0428571429 C35.3423913,0.0428571429 35.3423913,-7.10542736e-15 35.4048913,-7.10542736e-15 C35.4673913,-7.10542736e-15 35.5298913,-7.10542736e-15 35.6548913,-7.10542736e-15 C35.7173913,-7.10542736e-15 35.8423913,-7.10542736e-15 35.8423913,-7.10542736e-15 C35.9048913,-7.10542736e-15 35.9673913,-7.10542736e-15 35.9673913,0.0428571429 C36.0298913,0.0428571429 36.0298913,0.0857142857 36.0298913,0.0857142857 C36.0298913,0.0857142857 36.0298913,0.128571429 36.0298913,0.171428571 L36.0298913,3.34285714 Z" id="Shape"></path>
        </g>
        <path d="M28.7484197,15.101445 C28.7484197,15.3290144 28.5587863,15.6324402 28.3312263,15.746225 L15.3982301,21.549245 C15.17067,21.6630297 14.7914033,21.6630297 14.6017699,21.549245 L1.63084703,15.746225 C1.40328698,15.6324402 1.2136536,15.3669426 1.2136536,15.101445 L1.2136536,3.64711782 C1.2136536,3.41954841 1.40328698,3.26783547 1.63084703,3.38162017 L14.6396966,9.48806609 C14.8672566,9.6018508 15.2085967,9.6018508 15.4361568,9.48806609 L28.369153,3.41954841 C28.596713,3.3057637 28.7863464,3.41954841 28.7863464,3.68504606 L28.7863464,15.101445 L28.7484197,15.101445 Z M3.22376738,2.81269664 L3.22376738,2.05413193 C3.22376738,1.82656252 3.41340076,1.67484957 3.64096081,1.78863428 L14.6017699,6.90894608 C14.82933,7.02273078 15.17067,7.02273078 15.3982301,6.90894608 L26.0176991,1.78863428 C26.2452592,1.67484957 26.4348925,1.78863428 26.3969659,2.05413193 L26.3969659,3.00233782 L15.4361568,8.16057785 C15.2085967,8.27436256 14.8672566,8.27436256 14.6396966,8.16057785 L3.22376738,2.81269664 C3.18584071,2.81269664 3.22376738,2.81269664 3.22376738,2.81269664 M29.5828066,1.4852084 L27.5347661,2.47134252 L27.5347661,0.309433096 C27.5347661,0.0818636825 27.3451327,-0.0319210241 27.1175727,0.043935447 L15.3982301,5.69524254 C15.17067,5.80902725 14.82933,5.80902725 14.6017699,5.69524254 L2.54108723,0.043935447 C2.31352718,-0.0698492596 2.12389381,0.043935447 2.12389381,0.309433096 L2.12389381,2.31962958 L0.417193426,1.4852084 C0.189633375,1.40935193 0,1.52313663 0,1.75070605 L0,15.8979379 C0,16.1255073 0.189633375,16.4289332 0.417193426,16.5427179 L14.6017699,22.9146615 C14.82933,23.0284462 15.2085967,23.0284462 15.3982301,22.9146615 L29.5828066,16.5427179 C29.8103666,16.4289332 30,16.1634355 30,15.8979379 L30,1.75070605 C29.9620733,1.52313663 29.7724399,1.40935193 29.5828066,1.4852084" id="Shape"></path>
      </g>
    </g>
  </g>
</svg>
